<?xml version="1.0" encoding="UTF-8"?><svg width="327" height="211" xmlns="http://www.w3.org/2000/svg"><g transform="translate(-7 -22)" fill="none" fill-rule="evenodd"><path d="M25.6348 62.2436c-53.2274 26.9 18.0113 161.9103 146.3214 169.883 128.3102 7.9727 196.112-81.4711 144.579-130.5946-51.533-49.1234-237.673-66.1885-290.9004-39.2884z" fill="#D0D5DA"/><path d="M19.9938 137.0893c8.1984 4.612 16.5176 8.0348 24.6437 9.8149 59.9639 13.1356 121.3145-17.4753 89.8162-55.1248-11.717-14.0052-32.6926-28.6779-56.7428-41.081M249.9955 68.9393c-2.4395 1.1504-4.7703 2.4705-6.956 3.9597-18.5421 12.6339-9.063 40.0493 21.1722 61.234 30.2352 21.1848 59.2224 20.7215 64.7447-1.0349.9228-3.6353 1.4267-7.4287 1.5457-11.282" stroke="#FFF" stroke-width="1.0973" opacity=".4"/><ellipse fill="#323A45" cx="111" cy="190" rx="21" ry="4"/><ellipse fill="#C1C9D0" cx="198.5" cy="185" rx="64.5" ry="6"/><path d="M168.47 84.7876l11.8096-3.115L197.6003 77v35.0442c0 2.3363 3.1493 3.8939 0 13.239-2.0994 6.23-6.2984 21.8053-12.5969 46.7257-1.5746 4.1533-3.1492 7.0088-4.7238 8.5663-2.362 2.3363-4.7239 5.4513-7.873 6.2301-2.0996.5192-4.724 0-7.8732-1.5575-11.0223 1.5575-16.5334 1.298-16.5334-.7788 0-3.115 3.1492-6.23 7.873-7.0088 4.724-.7788 15.7462-.7788 18.1081-10.9027 2.362-10.1239 11.626-23.7525 10.235-44.3894-.9272-13.7579-6.176-26.218-15.7461-37.3805z" fill="#FFF"/><path d="M168.47 84.7876l11.8096-3.115L197.6003 77v35.0442c0 2.3363-9.6003-3.0442-13.3842 10.124-.9272-13.758-6.176-26.2181-15.7461-37.3806z" fill="#E8E8E8" opacity=".3"/><path d="M186 88.7184l31.1765 23.2696c6.2353 4.654 7.794 6.981 7.794 15.5131 0 8.5322 4.6766 33.3532 3.8971 38.0072-.7794 4.6539-1.5588 8.5322-8.5735 10.0835-7.0147 1.5513-16.778 2.2449-15.5882 6.9809.7794 3.1026 5.4559 2.327 11.6912 1.5513 6.2353-.7757 11.2284.4403 13.25.7756 4.6764.7757 5.4558-3.1026 7.794-6.2052 2.3383-3.1026 1.5589-32.5775.7795-41.8854-.7794-9.3079 1.5588-23.2697-3.897-28.6993-3.6373-3.6197-11.951-17.323-24.9412-41.1097L186 88.7184z" fill="#FFF"/><path d="M186 88.7184c16.6275 12.4104 21.8431 16.179 26 19.2816 2.1008 1.568 11.2582-1.7242 14.3132-.3565 6.0125 2.6918 11.628 4.0665 8.0103.4662-3.6372-3.6197-11.951-17.323-24.9411-41.1097L186 88.7184z" fill="#E8E8E8" opacity=".3"/><path d="M221.9148 37.7152c11.622-6.3206 21.0804-10.323 28.3753-12.0068 10.9423-2.5259 28.0385-4.2305 29.2315-1.2909 1.193 2.9396-15.008 8.3901-25.0935 11.487-6.7237 2.0647-17.073 3.9821-31.048 5.7523l-1.4653-3.9416z" fill="#E8E8E8"/><path d="M224.5612 41.3055c12.9986-3.8114 23.3263-5.809 30.9831-5.9927 11.4853-.2755 28.9368 1.4625 29.4823 4.5423.5451 3.0798-16.836 5.1425-27.591 6.1401-7.17.665-17.929.4695-32.2774-.5867l-.597-4.103z" fill="#E8E8E8"/><path d="M224.8536 40.6152c13.4322.5408 23.7632 1.9811 30.9933 4.321 10.845 3.5096 26.61 10.957 26.1015 14.156-.5087 3.199-17.4654-.4987-27.8657-3.06-6.9335-1.7076-16.9428-5.4402-30.0279-11.1978l.7988-4.2192z" fill="#E8E8E8"/><path d="M222.3361 43.1763c13.0262 3.3217 22.832 6.8785 29.4176 10.6704 9.8783 5.6878 23.7505 16.25 22.5879 19.2735-1.1626 3.0234-16.98-4.119-26.6205-8.7868-6.427-3.1118-15.4415-8.8438-27.0436-17.1962l1.6586-3.961zM194 49l-3 15 2 21 5 15c2.1329-3.5902 4.1329-5.9236 6-7 2.2983-1.325 8.6227-1.0818 10-2 3-2-1.8672-4.8584 1-9 1.9115-2.761 4.9115-3.761 9-3-2.3909-6.1604-3.3909-9.827-3-11 1.2099-3.6305 7-2.3886 7-5 0-2.3936-3.9835-4.5126-5-7-.42-1.0277-.0866-2.361 1-4l-30-3z" fill="#E8E8E8"/><path d="M116.085 77.6177C112.206 94.7027 113 127.0214 113 141c0 9.319-2.6667 26.9858-8 53h12c5.6444-20.667 8.208-38.5075 7.6908-53.5216C123.915 117.9573 124 99 131.6004 88.49c7.6003-10.51 21.2355-44.684 16.291-48.1487-4.9443-3.4647-27.9276 20.1914-31.8064 37.2764z" fill="#FFF"/><path d="M125.716 104.51c1.0691-6.4482 2.8957-11.8872 5.8844-16.02 7.6003-10.51 21.2355-44.684 16.291-48.1487C144.9146 38.2553 131.5584 62.1196 126 82c-3.6733 13.1384-.9404 26.4692-.284 22.51z" fill="#E8E8E8" opacity=".3"/><path d="M105.759 191.0725c-.1655.6426-.4185 1.6184-.759 2.9275h12c.39-1.1489.6794-2.008.8679-2.5773C114 192 109 192 105.7589 191.0725z" fill="#8E98A6" opacity=".15"/><path d="M131.7491 50.2379c11.68-14.0448 44.573-33.335 75.351-21.622C237.878 40.329 245 50 251 68c6 18-11.0157-6.1435-33-12-21.9843-5.8565-21 0-15 2 3.7908 1.2636 14.3302 2.7447 24 8 5.6354 3.0627 11.7908 8.5816 14 13 6 12-1 18-6 18s-7 0-18-7-21-16-19-10 23.7875 16.094 23 22c-.7875 5.906-12 9-27 8s-30.275-4.6793-42-12c-11.725-7.3207-16.7154-12.2827-22.5779-22.5317-5.8625-10.249-9.353-11.1856 2.327-25.2304z" fill="#323A45"/><path d="M151 48c4-10 24.9566-17.0554 28.8203-7.6668 2.5757 6.2591-.2576 10.9535-8.5 14.083 10.759-.2475 15.3953 2.6213 13.909 8.6063-1.4862 5.985-5.865 9.3753-13.1363 10.171 13.1501.1335 16.1191 3.069 8.907 8.8065-10.8182 8.6063-21 3-27-6s-7-18-3-28z" fill="#FFF"/></g></svg>
